# xmcd CD database file
#
# Track frame offsets:
#	150
#	19837
#	34357
#	63792
#	85515
#	100822
#	113915
#	129742
#	150722
#	169402
#	189580
#	210990
#	220535
#	232372
#	250805
#	277755
#	294415
#
# Disc length: 4026 seconds
#
# Revision: 1
# Processed by: cddbd v1.5.1PL0 Copyright (c) Steve Scherf et al.
# Submitted via: CDex 1.51
#
DISCID=eb0fb811
DTITLE=Nino Rota - Nino Rota Plays Nino Rota Complete Edition
DYEAR=1993
DGENRE=Soundtrack
TTITLE0=The Godfather
TTITLE1=Romeo And Juliet
TTITLE2=War And Peace
TTITLE3=Rocco E I Suoi Fratelli
TTITLE4=Plein Soleil
TTITLE5=Sunset Sunrise
TTITLE6="La Strada" Gelsomina
TTITLE7=Le Notti Di Cabiria
TTITLE8=Giulietta Degli Spiriti
TTITLE9=Otto E Mezzo
TTITLE10=Satyricon - Fellini - Roma
TTITLE11=Boccaccio '70 - Dolce Vita
TTITLE12=Lo Sceicco Bianco
TTITLE13=The Taming Of The Shrew
TTITLE14=Il Gattopardo
TTITLE15=Theme From The Godfather Part 2
TTITLE16=Amarcord
EXTD=YEAR: 1993
EXTT0=
EXTT1=
EXTT2=
EXTT3=
EXTT4=
EXTT5=
EXTT6=
EXTT7=
EXTT8=
EXTT9=
EXTT10=
EXTT11=
EXTT12=
EXTT13=
EXTT14=
EXTT15=
EXTT16=
PLAYORDER=
